<svg width="247" height="95" viewBox="0 0 247 95" fill="none" xmlns="http://www.w3.org/2000/svg">
<rect x="0.159912" y="0.697388" width="246.38" height="93.4907" rx="21.9978" fill="white" fill-opacity="0.4"/>
<g clip-path="url(#clip0_0_481)">
<path d="M127.81 34.5837C127.81 36.4466 126.316 37.9473 124.46 37.9473C122.605 37.9473 121.11 36.4466 121.11 34.5837C121.11 32.7209 122.553 31.2202 124.46 31.2202C126.367 31.272 127.81 32.7726 127.81 34.5837ZM113.997 41.3625C113.997 41.673 113.997 42.1905 113.997 42.1905C113.997 42.1905 112.399 40.1206 108.998 40.1206C103.38 40.1206 98.9987 44.4156 98.9987 50.3664C98.9987 56.2656 103.328 60.6123 108.998 60.6123C112.451 60.6123 113.997 58.4907 113.997 58.4907V59.3704C113.997 59.7843 114.306 60.0948 114.719 60.0948H118.894V40.6381C118.894 40.6381 115.08 40.6381 114.719 40.6381C114.306 40.6381 113.997 41.0003 113.997 41.3625ZM113.997 53.8335C113.224 54.9719 111.678 55.9551 109.822 55.9551C106.524 55.9551 103.998 53.8852 103.998 50.3664C103.998 46.8477 106.524 44.7778 109.822 44.7778C111.626 44.7778 113.276 45.8127 113.997 46.8994V53.8335ZM121.986 40.6381H126.934V60.0948H121.986V40.6381ZM195.896 40.1206C192.495 40.1206 190.897 42.1905 190.897 42.1905V31.272H185.949V60.0948C185.949 60.0948 189.763 60.0948 190.124 60.0948C190.536 60.0948 190.845 59.7326 190.845 59.3704V58.4907C190.845 58.4907 192.443 60.6123 195.845 60.6123C201.463 60.6123 205.844 56.2656 205.844 50.3664C205.844 44.4673 201.463 40.1206 195.896 40.1206ZM195.072 55.9033C193.165 55.9033 191.67 54.9201 190.897 53.7817V46.8477C191.67 45.8127 193.319 44.7261 195.072 44.7261C198.37 44.7261 200.896 46.7959 200.896 50.3147C200.896 53.8335 198.37 55.9033 195.072 55.9033ZM183.372 48.5553V60.1466H178.424V49.1245C178.424 45.9162 177.393 44.6226 174.61 44.6226C173.115 44.6226 171.569 45.3988 170.589 46.5372V60.0948H165.642V40.6381H169.559C169.971 40.6381 170.28 41.0003 170.28 41.3625V42.1905C171.723 40.6898 173.63 40.1206 175.537 40.1206C177.702 40.1206 179.506 40.7416 180.949 41.9835C182.702 43.4324 183.372 45.2953 183.372 48.5553ZM153.632 40.1206C150.231 40.1206 148.633 42.1905 148.633 42.1905V31.272H143.685V60.0948C143.685 60.0948 147.499 60.0948 147.86 60.0948C148.272 60.0948 148.581 59.7326 148.581 59.3704V58.4907C148.581 58.4907 150.179 60.6123 153.581 60.6123C159.199 60.6123 163.58 56.2656 163.58 50.3664C163.631 44.4673 159.25 40.1206 153.632 40.1206ZM152.808 55.9033C150.901 55.9033 149.406 54.9201 148.633 53.7817V46.8477C149.406 45.8127 151.055 44.7261 152.808 44.7261C156.106 44.7261 158.632 46.7959 158.632 50.3147C158.632 53.8335 156.106 55.9033 152.808 55.9033ZM139.407 40.1206C140.902 40.1206 141.675 40.3794 141.675 40.3794V44.9848C141.675 44.9848 137.552 43.5876 134.974 46.5372V60.1466H130.027V40.6381C130.027 40.6381 133.841 40.6381 134.201 40.6381C134.614 40.6381 134.923 41.0003 134.923 41.3625V42.1905C135.851 41.1038 137.861 40.1206 139.407 40.1206ZM88.0204 58.3354C87.7627 57.7145 87.505 57.0418 87.2473 56.4725C86.8349 55.5411 86.4226 54.6614 86.0618 53.8335L86.0103 53.7817C82.4539 46.0197 78.6399 38.1542 74.6197 30.3923L74.465 30.0818C74.0527 29.3056 73.6404 28.4776 73.228 27.6497C72.7126 26.7183 72.1972 25.7351 71.3726 24.8036C69.7232 22.7338 67.3523 21.5953 64.8268 21.5953C62.2498 21.5953 59.9304 22.7338 58.2295 24.7001C57.4564 25.6316 56.8895 26.6148 56.3741 27.5462C55.9617 28.3741 55.5494 29.2021 55.1371 29.9783L54.9824 30.2888C51.0138 38.0508 47.1482 45.9162 43.5918 53.6782L43.5403 53.7817C43.1795 54.6097 42.7672 55.4894 42.3548 56.4208C42.0971 56.99 41.8394 57.611 41.5817 58.2837C40.9117 60.1983 40.7055 62.0094 40.9632 63.8723C41.5302 67.7533 44.1072 71.0133 47.6636 72.4622C49.0036 73.0315 50.3953 73.2902 51.8384 73.2902C52.2507 73.2902 52.7662 73.2384 53.1785 73.1867C54.8794 72.9797 56.6318 72.4105 58.3326 71.4273C60.4458 70.2371 62.4559 68.5295 64.7237 66.0457C66.9916 68.5295 69.0532 70.2371 71.1149 71.4273C72.8157 72.4105 74.5681 72.9797 76.269 73.1867C76.6813 73.2384 77.1967 73.2902 77.6091 73.2902C79.0522 73.2902 80.4954 73.0315 81.7839 72.4622C85.3918 71.0133 87.9173 67.7016 88.4843 63.8723C88.8966 62.0612 88.6904 60.25 88.0204 58.3354ZM64.7753 61.0262C61.9921 57.5075 60.1881 54.1957 59.5696 51.4014C59.3119 50.2112 59.2604 49.1763 59.415 48.2448C59.5181 47.4169 59.8273 46.6924 60.2396 46.0715C61.2189 44.6743 62.8683 43.7946 64.7753 43.7946C66.6823 43.7946 68.3832 44.6226 69.3109 46.0715C69.7232 46.6924 70.0325 47.4169 70.1356 48.2448C70.2902 49.1763 70.2387 50.263 69.9809 51.4014C69.3624 54.1439 67.5585 57.4557 64.7753 61.0262ZM85.3402 63.4583C84.9795 66.1492 83.1755 68.4778 80.65 69.5127C79.413 70.0302 78.0729 70.1854 76.7328 70.0302C75.4443 69.8749 74.1558 69.4609 72.8157 68.6847C70.9602 67.6498 69.1047 66.0457 66.94 63.6653C70.3417 59.4739 72.4034 55.6446 73.1765 52.2293C73.5373 50.6252 73.5888 49.1763 73.4342 47.8309C73.228 46.5372 72.7642 45.347 72.0426 44.3121C70.4448 41.9835 67.7647 40.6381 64.7753 40.6381C61.7859 40.6381 59.1057 42.0352 57.508 44.3121C56.7864 45.347 56.3225 46.5372 56.1163 47.8309C55.9102 49.1763 55.9617 50.6769 56.3741 52.2293C57.1472 55.6446 59.2604 59.5256 62.6105 63.7171C60.4974 66.0974 58.5903 67.7016 56.7348 68.7365C55.3948 69.5127 54.1062 69.9267 52.8177 70.0819C51.4261 70.2371 50.086 70.0302 48.9006 69.5644C46.375 68.5295 44.5711 66.2009 44.2103 63.5101C44.0557 62.2164 44.1588 60.9228 44.6742 59.4738C44.8288 58.9564 45.0865 58.4389 45.3442 57.818C45.705 56.99 46.1173 56.1103 46.5297 55.2306L46.5812 55.1271C50.1376 47.4169 53.9516 39.5514 57.9203 31.8929L58.0749 31.5824C58.4872 30.8062 58.8996 29.9783 59.3119 29.2021C59.7242 28.3741 60.1881 27.5979 60.7551 26.9252C61.8374 25.6833 63.2806 25.0106 64.8784 25.0106C66.4761 25.0106 67.9193 25.6833 69.0017 26.9252C69.5686 27.5979 70.0325 28.3741 70.4448 29.2021C70.8571 29.9783 71.2695 30.8062 71.6818 31.5824L71.8364 31.8929C75.7536 39.6032 79.5676 47.4686 83.124 55.1789V55.2306C83.5363 56.0586 83.8971 56.99 84.3094 57.818C84.5671 58.4389 84.8248 58.9564 84.9795 59.4738C85.3918 60.8193 85.5464 62.1129 85.3402 63.4583Z" fill="#FF385C"/>
</g>
<defs>
<clipPath id="clip0_0_481">
<rect width="164.988" height="51.6949" fill="white" transform="translate(40.8558 21.5953)"/>
</clipPath>
</defs>
</svg>
