<svg width="274" height="97" viewBox="0 0 274 97" fill="none" xmlns="http://www.w3.org/2000/svg">
<rect x="0.536987" y="0.824707" width="273.139" height="95.8738" rx="21.9978" fill="white" fill-opacity="0.4"/>
<g clip-path="url(#clip0_0_451)">
<path fill-rule="evenodd" clip-rule="evenodd" d="M158.724 64.0133C148.289 71.6996 133.163 75.8006 120.141 75.8006C101.881 75.8006 85.4423 69.0516 73.0059 57.8267C72.0288 56.944 72.9043 55.7411 74.0768 56.4285C87.4981 64.232 104.093 68.9266 121.235 68.9266C132.796 68.9266 145.514 66.5363 157.207 61.5761C158.974 60.8262 160.451 62.7322 158.724 64.0133Z" fill="#FF9900"/>
<path fill-rule="evenodd" clip-rule="evenodd" d="M163.062 59.053C161.733 57.3501 154.245 58.2484 150.884 58.6468C149.86 58.7718 149.703 57.8813 150.626 57.2407C156.59 53.0461 166.376 54.2568 167.518 55.6629C168.659 57.0767 167.221 66.8799 161.616 71.5589C160.756 72.2776 159.935 71.8948 160.318 70.9418C161.577 67.8017 164.399 60.7637 163.062 59.053Z" fill="#FF9900"/>
<path fill-rule="evenodd" clip-rule="evenodd" d="M151.118 27.628V23.5505C151.118 22.9334 151.587 22.5194 152.15 22.5194H170.418C171.004 22.5194 171.473 22.9412 171.473 23.5505V27.0422C171.465 27.628 170.973 28.3935 170.097 29.6043L160.631 43.1101C164.149 43.0242 167.862 43.5475 171.051 45.3441C171.77 45.7503 171.965 46.344 172.02 46.9299V51.2808C172.02 51.8744 171.363 52.5696 170.676 52.2103C165.055 49.2654 157.59 48.9452 151.376 52.2416C150.743 52.5853 150.079 51.8979 150.079 51.3042V47.172C150.079 46.508 150.086 45.3754 150.751 44.3677L161.718 28.6513H152.173C151.587 28.6513 151.118 28.2373 151.118 27.628Z" fill="black"/>
<path fill-rule="evenodd" clip-rule="evenodd" d="M84.4808 53.0695H78.9231C78.3916 53.0304 77.9695 52.6321 77.9304 52.1243V23.6207C77.9304 23.0505 78.4072 22.5974 79.0013 22.5974H84.1838C84.7231 22.6209 85.1531 23.0349 85.1921 23.5504V27.2764H85.2938C86.646 23.6754 89.1865 21.996 92.6102 21.996C96.0886 21.996 98.2617 23.6754 99.825 27.2764C101.169 23.6754 104.226 21.996 107.501 21.996C109.83 21.996 112.379 22.9568 113.934 25.1127C115.693 27.5108 115.333 30.9946 115.333 34.0489L115.326 52.0384C115.326 52.6086 114.849 53.0695 114.255 53.0695H108.705C108.15 53.0304 107.704 52.5852 107.704 52.0384V36.9313C107.704 35.7283 107.814 32.7288 107.548 31.5883C107.134 29.6745 105.891 29.1355 104.281 29.1355C102.936 29.1355 101.529 30.0338 100.958 31.4711C100.388 32.9084 100.443 35.3143 100.443 36.9313V52.0384C100.443 52.6086 99.9657 53.0695 99.3716 53.0695H93.8218C93.259 53.0304 92.8212 52.5852 92.8212 52.0384L92.8134 36.9313C92.8134 33.752 93.3371 29.073 89.3897 29.073C85.3954 29.073 85.5517 33.6349 85.5517 36.9313V52.0384C85.5517 52.6086 85.0749 53.0695 84.4808 53.0695Z" fill="black"/>
<path fill-rule="evenodd" clip-rule="evenodd" d="M187.2 21.996C195.447 21.996 199.91 29.073 199.91 38.0717C199.91 46.7657 194.978 53.6631 187.2 53.6631C179.102 53.6631 174.693 46.5861 174.693 37.7671C174.693 28.8934 179.157 21.996 187.2 21.996ZM187.247 27.8154C183.151 27.8154 182.893 33.3927 182.893 36.8688C182.893 40.3526 182.838 47.789 187.2 47.789C191.507 47.789 191.71 41.7899 191.71 38.1342C191.71 35.7283 191.609 32.8537 190.882 30.5728C190.256 28.5887 189.014 27.8154 187.247 27.8154Z" fill="black"/>
<path fill-rule="evenodd" clip-rule="evenodd" d="M210.603 53.0695H205.069C204.514 53.0304 204.069 52.5852 204.069 52.0384L204.061 23.527C204.108 23.0036 204.569 22.5974 205.132 22.5974H210.283C210.768 22.6209 211.166 22.949 211.276 23.3942V27.7529H211.377C212.933 23.8551 215.114 21.996 218.952 21.996C221.445 21.996 223.876 22.8943 225.439 25.3548C226.893 27.6358 226.893 31.4711 226.893 34.2285V52.1712C226.831 52.6711 226.37 53.0695 225.822 53.0695H220.249C219.741 53.0304 219.319 52.6555 219.264 52.1712V36.6891C219.264 33.5724 219.624 29.0106 215.786 29.0106C214.434 29.0106 213.191 29.9167 212.573 31.2915C211.792 33.0334 211.69 34.7675 211.69 36.6891V52.0384C211.682 52.6086 211.197 53.0695 210.603 53.0695Z" fill="black"/>
<path fill-rule="evenodd" clip-rule="evenodd" d="M136.556 39.4544C136.556 41.6181 136.61 43.4226 135.516 45.3442C134.633 46.9064 133.226 47.8672 131.67 47.8672C129.536 47.8672 128.286 46.2425 128.286 43.8444C128.286 39.1107 132.53 38.2515 136.556 38.2515V39.4544ZM142.16 52.9915C141.793 53.3195 141.261 53.343 140.847 53.1243C139.002 51.5932 138.666 50.8824 137.658 49.4217C134.609 52.5306 132.444 53.4601 128.497 53.4601C123.814 53.4601 120.18 50.5777 120.18 44.8052C120.18 40.298 122.619 37.2282 126.105 35.7284C129.122 34.4005 133.335 34.1661 136.556 33.799V33.0803C136.556 31.7602 136.657 30.198 135.876 29.0575C135.203 28.0342 133.906 27.6124 132.757 27.6124C130.638 27.6124 128.755 28.6982 128.293 30.9479C128.2 31.4478 127.832 31.9399 127.324 31.9633L121.938 31.3853C121.485 31.2837 120.977 30.9166 121.11 30.2214C122.345 23.6911 128.254 21.7227 133.538 21.7227C136.243 21.7227 139.776 22.4413 141.91 24.4879C144.615 27.0109 144.357 30.3776 144.357 34.0411V42.6961C144.357 45.2973 145.435 46.4377 146.452 47.8438C146.803 48.3437 146.882 48.9452 146.428 49.3201C145.295 50.2653 143.278 52.0229 142.168 53.0071L142.16 52.9915Z" fill="black"/>
<path fill-rule="evenodd" clip-rule="evenodd" d="M63.6962 39.4544C63.6962 41.6181 63.7509 43.4226 62.6566 45.3442C61.7733 46.9064 60.3741 47.8672 58.8107 47.8672C56.6768 47.8672 55.4339 46.2425 55.4339 43.8444C55.4339 39.1107 59.6784 38.2515 63.6962 38.2515V39.4544ZM69.3008 52.9915C68.9334 53.3195 68.4018 53.343 67.9876 53.1243C66.1428 51.5932 65.8145 50.8824 64.7983 49.4217C61.7498 52.5306 59.5924 53.4601 55.6372 53.4601C50.9628 53.4601 47.3202 50.5777 47.3202 44.8052C47.3202 40.298 49.7668 37.2282 53.2453 35.7284C56.2625 34.4005 60.4757 34.1661 63.6962 33.799V33.0803C63.6962 31.7602 63.7978 30.198 63.0239 29.0575C62.3439 28.0342 61.0463 27.6124 59.9051 27.6124C57.7868 27.6124 55.8951 28.6982 55.4339 30.9479C55.3401 31.4478 54.9727 31.9399 54.4725 31.9633L49.0789 31.3853C48.6256 31.2837 48.1253 30.9166 48.2504 30.2214C49.4932 23.6911 55.3948 21.7227 60.6789 21.7227C63.3835 21.7227 66.9167 22.4413 69.0506 24.4879C71.7552 27.0109 71.4972 30.3776 71.4972 34.0411V42.6961C71.4972 45.2973 72.576 46.4377 73.5921 47.8438C73.9517 48.3437 74.0299 48.9452 73.5765 49.3201C72.4431 50.2653 70.4264 52.0229 69.3164 53.0071L69.3008 52.9915Z" fill="black"/>
</g>
<defs>
<clipPath id="clip0_0_451">
<rect width="179.573" height="54.078" fill="white" transform="translate(47.3202 21.7227)"/>
</clipPath>
</defs>
</svg>
