<svg width="97" height="94" viewBox="0 0 97 94" fill="none" xmlns="http://www.w3.org/2000/svg">
<rect x="0.534546" y="0.187012" width="96.2404" height="93.4907" rx="21.9978" fill="white" fill-opacity="0.5"/>
<g clip-path="url(#clip0_0_492)">
<path d="M71.0157 37.6156C67.1068 40.0311 64.6925 44.1718 64.6925 48.7727C64.6925 53.9486 67.7966 58.6645 72.5102 60.6198C71.5905 63.6104 70.2109 66.3709 68.4864 68.9014C65.9572 72.467 63.313 76.1477 59.4041 76.1477C55.4953 76.1477 54.3456 73.8473 49.747 73.8473C45.2633 73.8473 43.6538 76.2627 39.9749 76.2627C36.296 76.2627 33.7668 72.9271 30.8926 68.7863C27.0988 63.0353 24.9144 56.3641 24.7994 49.3478C24.7994 37.9607 32.1572 31.8646 39.515 31.8646C43.4239 31.8646 46.6429 34.395 49.0572 34.395C51.3565 34.395 55.0354 31.7495 59.4041 31.7495C64.0027 31.6345 68.3714 33.8199 71.0157 37.6156ZM57.3347 26.9186C59.2892 24.6182 60.3238 21.7427 60.4388 18.7521C60.4388 18.4071 60.4388 17.947 60.3238 17.6019C56.9898 17.947 53.8858 19.5573 51.7014 22.0878C49.747 24.2732 48.5973 27.0337 48.4824 30.0242C48.4824 30.3693 48.4824 30.7143 48.5973 31.0594C48.8273 31.0594 49.1722 31.1744 49.4021 31.1744C52.5062 30.9444 55.3803 29.3341 57.3347 26.9186Z" fill="#0E0F0B"/>
</g>
<defs>
<clipPath id="clip0_0_492">
<rect width="47.7108" height="58.6608" fill="white" transform="translate(24.7994 17.6019)"/>
</clipPath>
</defs>
</svg>
