<svg width="202" height="94" viewBox="0 0 202 94" fill="none" xmlns="http://www.w3.org/2000/svg">
<rect x="0.773926" y="0.187012" width="200.73" height="93.4907" rx="21.9978" fill="white" fill-opacity="0.3"/>
<path d="M119.999 48.8263C112.821 49.0733 108.367 50.3909 108.367 55.0847C108.367 58.1315 110.841 61.4254 117.029 61.4254C125.361 61.4254 129.734 56.8963 129.734 49.485V48.6616C126.846 48.6616 123.216 48.7439 119.999 48.8263ZM137.653 58.6256C137.653 60.9314 137.736 63.1548 137.901 65.2134H130.559C130.394 63.5665 130.311 61.8372 130.311 60.2726C126.351 65.1311 121.566 66.531 115.049 66.531C105.232 66.531 100.034 61.4255 100.034 55.4141C100.034 46.7676 107.129 43.803 119.421 43.4736C122.804 43.3913 126.599 43.3913 129.734 43.3913V42.5678C129.734 36.8035 126.021 34.4154 119.586 34.4154C114.801 34.4154 111.336 36.3917 110.924 39.768H102.592C103.499 31.2862 112.409 29.1451 120.246 29.1451C129.651 29.1451 137.571 32.5214 137.571 42.4031V58.6256H137.653Z" fill="#F5AF02"/>
<path d="M51.5251 44.6264C51.1951 37.2151 45.9152 34.4977 40.1403 34.4977C34.0355 34.4153 29.0856 37.5445 28.2606 44.6264H51.5251ZM28.0956 49.8967C28.5081 57.0609 33.458 61.343 40.3053 61.343C45.0077 61.343 49.2151 59.449 50.6176 55.2493H58.785C57.135 63.6488 48.1427 66.5309 40.3878 66.5309C26.2806 66.5309 20.0107 58.7902 20.0107 48.3321C20.0107 36.8034 26.4456 29.2274 40.4703 29.2274C51.6076 29.2274 59.8574 35.0741 59.8574 47.7557V49.8967H28.0956Z" fill="#E53238"/>
<path d="M80.1519 61.0961C87.4943 61.0961 92.5267 55.8259 92.5267 47.8381C92.5267 39.8504 87.4943 34.5802 80.1519 34.5802C72.8096 34.5802 67.7772 39.8504 67.7772 47.8381C67.7772 55.8259 72.8096 61.0961 80.1519 61.0961ZM59.8574 15.3108H67.7772V35.1566C71.6546 30.5451 77.017 29.2276 82.2969 29.2276C91.1242 29.2276 100.942 35.1566 100.942 48.0028C100.942 58.708 93.1867 66.5311 82.2144 66.5311C76.4395 66.5311 71.0771 64.4724 67.6947 60.4373C67.6947 62.0843 67.6122 63.7313 67.4472 65.2959H59.6099C59.7749 62.8254 59.8574 59.6962 59.8574 57.1434V15.3108Z" fill="#0064D2"/>
<path d="M177.913 30.5452L153.411 78.5539H144.583L151.596 65.2136L133.198 30.5452H142.438L155.968 57.6376L169.498 30.5452H177.913Z" fill="#86B817"/>
</svg>
