<svg width="98" height="95" viewBox="0 0 98 95" fill="none" xmlns="http://www.w3.org/2000/svg">
<rect x="0.815979" y="0.824707" width="96.2404" height="93.4907" rx="21.9978" fill="white" fill-opacity="0.5"/>
<g clip-path="url(#clip0_0_472)">
<path d="M48.9362 47.5701C48.9362 41.8915 53.5396 37.288 59.2183 37.288C64.8969 37.288 69.5004 41.8915 69.5004 47.5701C69.5004 53.2488 64.8969 57.8522 59.2183 57.8522C53.5396 57.8522 48.9362 53.2488 48.9362 47.5701Z" fill="#1ABCFE"/>
<path d="M28.372 68.1342C28.372 62.4556 32.9755 57.8521 38.6541 57.8521H48.9362V68.1342C48.9362 73.8128 44.3328 78.4163 38.6541 78.4163C32.9755 78.4163 28.372 73.8128 28.372 68.1342Z" fill="#0ACF83"/>
<path d="M48.9362 16.7238V37.2879H59.2183C64.897 37.2879 69.5004 32.6845 69.5004 27.0058C69.5004 21.3272 64.897 16.7238 59.2183 16.7238H48.9362Z" fill="#FF7262"/>
<path d="M28.372 27.0059C28.372 32.6845 32.9755 37.2879 38.6541 37.2879H48.9362V16.7238H38.6541C32.9755 16.7238 28.372 21.3272 28.372 27.0059Z" fill="#F24E1E"/>
<path d="M28.372 47.5701C28.372 53.2488 32.9755 57.8522 38.6541 57.8522H48.9362V37.288H38.6541C32.9755 37.288 28.372 41.8915 28.372 47.5701Z" fill="#A259FF"/>
</g>
<defs>
<clipPath id="clip0_0_472">
<rect width="41.5514" height="62.3271" fill="white" transform="translate(28.1605 16.4065)"/>
</clipPath>
</defs>
</svg>
