<svg width="178" height="40" viewBox="0 0 178 40" fill="none" xmlns="http://www.w3.org/2000/svg">
<path d="M17.5504 20.826C18.6642 21.2535 19.5698 22.041 20.2673 23.1886C20.9761 24.3361 21.3305 25.613 21.3305 27.0193C21.3305 28.8981 20.6892 30.445 19.4067 31.66C18.1242 32.875 16.5154 33.4825 14.5803 33.4825H2.27818V9.63764H13.8209C15.621 9.63764 17.1285 10.217 18.3435 11.3758C19.5698 12.5233 20.1829 13.9802 20.1829 15.7465C20.1829 16.8153 19.9354 17.8053 19.4404 18.7166C18.9567 19.6279 18.3267 20.331 17.5504 20.826ZM12.4709 14.4809H7.45891V18.9697H12.4709C13.0897 18.9697 13.6128 18.756 14.0403 18.3285C14.4678 17.9009 14.6816 17.3666 14.6816 16.7253C14.6816 16.0728 14.4678 15.5384 14.0403 15.1221C13.6241 14.6946 13.1009 14.4809 12.4709 14.4809ZM13.264 28.6393C13.9953 28.6393 14.6028 28.3974 15.0866 27.9137C15.5816 27.4187 15.8291 26.8111 15.8291 26.0911C15.8291 25.3599 15.5816 24.7467 15.0866 24.2517C14.5916 23.7455 13.9841 23.4923 13.264 23.4923H7.45891V28.6393H13.264ZM32.6876 33.9044C29.9763 33.9044 27.7094 33.0213 25.8868 31.255C24.0755 29.4887 23.1699 27.2949 23.1699 24.6736C23.1699 22.0523 24.0755 19.8585 25.8868 18.0922C27.7094 16.3259 29.9763 15.4428 32.6876 15.4428C34.4764 15.4428 36.0964 15.8478 37.5477 16.6578C38.999 17.4566 40.1353 18.5647 40.9565 19.9822C41.7778 21.3885 42.1884 22.9523 42.1884 24.6736C42.1884 26.3949 41.7778 27.9643 40.9565 29.3818C40.1353 30.7881 38.999 31.8963 37.5477 32.7063C36.0964 33.505 34.4764 33.9044 32.6876 33.9044ZM29.5994 27.7787C30.4207 28.6112 31.4501 29.0274 32.6876 29.0274C33.9251 29.0274 34.9545 28.6112 35.7758 27.7787C36.5971 26.9461 37.0077 25.9111 37.0077 24.6736C37.0077 23.4361 36.5971 22.401 35.7758 21.5685C34.9545 20.736 33.9251 20.3198 32.6876 20.3198C31.4501 20.3198 30.4207 20.736 29.5994 21.5685C28.7781 22.401 28.3675 23.4361 28.3675 24.6736C28.3675 25.9111 28.7781 26.9461 29.5994 27.7787ZM53.6468 33.9044C50.9355 33.9044 48.6686 33.0213 46.846 31.255C45.0347 29.4887 44.1291 27.2949 44.1291 24.6736C44.1291 22.0523 45.0347 19.8585 46.846 18.0922C48.6686 16.3259 50.9355 15.4428 53.6468 15.4428C55.4356 15.4428 57.0556 15.8478 58.5069 16.6578C59.9582 17.4566 61.0945 18.5647 61.9157 19.9822C62.737 21.3885 63.1476 22.9523 63.1476 24.6736C63.1476 26.3949 62.737 27.9643 61.9157 29.3818C61.0945 30.7881 59.9582 31.8963 58.5069 32.7063C57.0556 33.505 55.4356 33.9044 53.6468 33.9044ZM50.5586 27.7787C51.3799 28.6112 52.4093 29.0274 53.6468 29.0274C54.8843 29.0274 55.9137 28.6112 56.735 27.7787C57.5563 26.9461 57.9669 25.9111 57.9669 24.6736C57.9669 23.4361 57.5563 22.401 56.735 21.5685C55.9137 20.736 54.8843 20.3198 53.6468 20.3198C52.4093 20.3198 51.3799 20.736 50.5586 21.5685C49.7374 22.401 49.3267 23.4361 49.3267 24.6736C49.3267 25.9111 49.7374 26.9461 50.5586 27.7787ZM87.4482 15.4428C89.4282 15.4428 91.0089 16.039 92.1902 17.2316C93.3827 18.4241 93.979 20.0047 93.979 21.9735V33.4825H88.9332V23.4923C88.9332 22.5361 88.652 21.771 88.0894 21.1973C87.5382 20.6123 86.7957 20.3198 85.8619 20.3198C84.8944 20.3198 84.1069 20.6179 83.4993 21.2141C82.8918 21.8104 82.5881 22.5923 82.5881 23.5598V33.4825H77.5423V23.4923C77.5423 22.5361 77.2611 21.771 76.6986 21.1973C76.1361 20.6123 75.3879 20.3198 74.4541 20.3198C73.4866 20.3198 72.6991 20.6179 72.0916 21.2141C71.4841 21.8104 71.1803 22.5923 71.1803 23.5598V33.4825H66.1346V15.8647H71.1803V17.5522C72.4854 16.1459 74.156 15.4428 76.1923 15.4428C77.3736 15.4428 78.4255 15.6847 79.348 16.1684C80.2705 16.6409 81.013 17.3103 81.5756 18.1766C83.0156 16.354 84.9731 15.4428 87.4482 15.4428Z" fill="#000120"/>
<rect x="99" y="0.482544" width="78.1856" height="39.0349" rx="9.14879" fill="#7D83FF"/>
<path d="M119.888 27.2775C120.985 28.2472 122.237 29.0659 123.546 29.4893C119.936 31.1738 115.508 30.5508 112.332 27.7449C108.06 23.9699 107.656 17.4458 111.431 13.1733C114.237 9.99763 118.554 8.83407 122.345 10.0611C121.098 10.6425 119.956 11.6101 118.987 12.7066C115.212 16.9791 115.615 23.5025 119.888 27.2775Z" fill="white"/>
<path d="M135.09 15.6276H139.188V29.9372H135.09V28.5117C133.939 29.6904 132.495 30.2798 130.759 30.2798C128.794 30.2798 127.149 29.5625 125.824 28.1279C124.509 26.6933 123.851 24.9114 123.851 22.7824C123.851 20.6533 124.509 18.8714 125.824 17.4368C127.149 16.0022 128.794 15.2849 130.759 15.2849C132.495 15.2849 133.939 15.8743 135.09 17.053V15.6276ZM131.581 26.3186C132.586 26.3186 133.422 25.9806 134.089 25.3044C134.757 24.6282 135.09 23.7875 135.09 22.7824C135.09 21.7772 134.757 20.9366 134.089 20.2604C133.422 19.5842 132.586 19.2461 131.581 19.2461C130.585 19.2461 129.754 19.5842 129.087 20.2604C128.429 20.9366 128.1 21.7772 128.1 22.7824C128.1 23.7875 128.429 24.6282 129.087 25.3044C129.754 25.9806 130.585 26.3186 131.581 26.3186Z" fill="white"/>
<path d="M150.4 15.3946H151.017V19.6025H150.4C149.167 19.6025 148.212 19.9314 147.536 20.5893C146.869 21.2472 146.535 22.1382 146.535 23.2621V29.9372H142.437V15.6276H146.535V17.2449C147.595 16.0113 148.883 15.3946 150.4 15.3946Z" fill="white"/>
<path d="M163.243 9.72006H167.341V29.9372H163.243V28.5117C162.092 29.6904 160.648 30.2798 158.912 30.2798C156.947 30.2798 155.303 29.5625 153.978 28.1279C152.662 26.6933 152.004 24.9114 152.004 22.7824C152.004 20.6533 152.662 18.8714 153.978 17.4368C155.303 16.0022 156.947 15.2849 158.912 15.2849C160.648 15.2849 162.092 15.8743 163.243 17.053V9.72006ZM159.734 26.3186C160.739 26.3186 161.576 25.9806 162.243 25.3044C162.91 24.6282 163.243 23.7875 163.243 22.7824C163.243 21.7772 162.91 20.9366 162.243 20.2604C161.576 19.5842 160.739 19.2461 159.734 19.2461C158.738 19.2461 157.907 19.5842 157.24 20.2604C156.582 20.9366 156.253 21.7772 156.253 22.7824C156.253 23.7875 156.582 24.6282 157.24 25.3044C157.907 25.9806 158.738 26.3186 159.734 26.3186Z" fill="white"/>
</svg>
