<svg width="231" height="94" viewBox="0 0 231 94" fill="none" xmlns="http://www.w3.org/2000/svg">
<rect x="0.502808" y="0.187012" width="229.556" height="93.4907" rx="21.9978" fill="white" fill-opacity="0.3"/>
<path d="M194.87 41.2335L204.395 66.1963C201.603 65.8172 198.757 65.2757 195.91 64.8425L190.546 51.0345L185.017 63.7054C182.335 63.2722 179.653 63.1098 176.916 62.7849L186.605 40.9628L177.847 18.545H186.003L190.929 31.0535L196.184 18.545H204.395L194.87 41.2335ZM171.442 18.545H164.053V61.8102C166.461 61.9726 168.979 62.0809 171.442 62.3517V18.545ZM157.703 61.3228C150.97 60.8896 144.237 60.4565 137.395 60.3482V18.545H144.894V53.3088C149.219 53.4171 153.543 53.742 157.703 53.9586V61.3228ZM129.349 35.4937V42.9121H119.058V59.8608H111.613V18.545H132.688V25.9635H119.058V35.4396H129.349V35.4937ZM98.9688 25.9635V60.2399C96.4509 60.2399 93.8782 60.2399 91.4149 60.3482V25.9635H83.6421V18.545H106.796V25.9635H98.9688ZM75.5408 43.2912C72.2565 43.2912 68.3154 43.2912 65.5237 43.4536V54.5001C69.9575 54.1752 74.3366 53.8503 78.8251 53.6878V60.8355L58.0246 62.46V18.545H78.8251V25.9635H65.5237V35.9811C68.4248 35.9811 72.9134 35.8186 75.5408 35.8186V43.2912ZM33.8302 39.1217V65.1133C31.1481 65.4382 28.7396 65.8172 26.1669 66.1963V18.545H33.3376L43.1357 45.6196V18.545H50.6896V63.1098C48.0075 63.543 45.3253 63.7054 42.4789 64.0844L33.8302 39.1217Z" fill="#E50914"/>
</svg>
