<svg width="97" height="95" viewBox="0 0 97 95" fill="none" xmlns="http://www.w3.org/2000/svg">
<rect x="0.494141" y="0.697388" width="96.2404" height="93.4907" rx="21.9978" fill="white" fill-opacity="0.5"/>
<g clip-path="url(#clip0_0_486)">
<path d="M67.3047 43.8572C57.1198 37.8087 40.32 37.2526 30.5973 40.2034C29.0359 40.6773 27.3847 39.7956 26.9118 38.2347C26.4385 36.6723 27.319 35.0223 28.8815 34.5477C40.0426 31.1599 58.5962 31.8141 70.3213 38.7742C71.7256 39.6081 72.1863 41.4218 71.354 42.8237C70.5209 44.228 68.7057 44.6909 67.3047 43.8572ZM66.9712 52.8159C66.2566 53.9754 64.7406 54.3391 63.5827 53.6271C55.0915 48.4077 42.1437 46.8957 32.098 49.945C30.7953 50.3387 29.4194 49.6041 29.0236 48.3039C28.6311 47.0012 29.366 45.6277 30.6664 45.2316C42.1421 41.7493 56.4083 43.436 66.1608 49.4292C67.3187 50.1424 67.6832 51.6591 66.9712 52.8159ZM63.105 61.4196C62.5372 62.3508 61.3249 62.6425 60.3971 62.0749C52.9773 57.5402 43.6383 56.5161 32.64 59.0282C31.5801 59.2712 30.5238 58.6071 30.2821 57.5473C30.0394 56.4878 30.701 55.4314 31.7632 55.1895C43.799 52.438 54.1234 53.6222 62.4515 58.7113C63.38 59.2784 63.6725 60.4914 63.105 61.4196ZM48.6145 15.8463C31.1644 15.8463 17.0179 29.9925 17.0179 47.4423C17.0179 64.8942 31.1644 79.0392 48.6145 79.0392C66.0649 79.0392 80.2108 64.8942 80.2108 47.4423C80.2108 29.9925 66.0649 15.8463 48.6145 15.8463Z" fill="#1ED760"/>
</g>
<defs>
<clipPath id="clip0_0_486">
<rect width="64.1603" height="64.1603" fill="white" transform="translate(16.5342 15.3625)"/>
</clipPath>
</defs>
</svg>
