<svg width="256" height="97" viewBox="0 0 256 97" fill="none" xmlns="http://www.w3.org/2000/svg">
<rect x="0.842285" y="0.824707" width="254.808" height="95.3239" rx="21.9978" fill="white" fill-opacity="0.4"/>
<path d="M61.3066 19.5508C46.152 19.5508 33.737 31.2712 32.5573 46.1661L48.0197 52.5784C49.3299 51.6797 50.9127 51.1531 52.6154 51.1531C52.768 51.1531 52.92 51.1583 53.0706 51.1669L59.9469 41.17C59.9469 41.1222 59.9463 41.0758 59.9463 41.0287C59.9463 35.0115 64.8263 30.1161 70.8261 30.1161C76.8252 30.1161 81.7052 35.0115 81.7052 41.0287C81.7052 47.0459 76.8252 51.942 70.8261 51.942C70.7433 51.942 70.6611 51.94 70.5789 51.9381L60.7719 58.9567C60.7771 59.0843 60.7817 59.2144 60.7817 59.344C60.7817 63.8613 57.1185 67.5348 52.6154 67.5348C48.6628 67.5348 45.3577 64.7051 44.609 60.9577L33.5511 56.3723C36.9749 68.5179 48.0999 77.4224 61.3066 77.4224C77.24 77.4224 90.1558 64.467 90.1558 48.4876C90.1558 32.5056 77.2393 19.5508 61.3066 19.5508Z" fill="#000120"/>
<path d="M50.6355 63.4564L47.0917 61.9879C47.7197 63.2994 48.8062 64.3977 50.2487 65.0008C53.3673 66.3038 56.9626 64.8196 58.2624 61.689C58.8917 60.1754 58.8956 58.5041 58.2715 56.9866C57.6487 55.4684 56.4735 54.2844 54.9625 53.6525C53.4632 53.0265 51.8569 53.0494 50.4457 53.5838L54.1062 55.102C56.4063 56.0636 57.4941 58.7128 56.5355 61.0198C55.5788 63.3276 52.9356 64.4186 50.6355 63.4564Z" fill="#000120"/>
<path d="M78.0747 41.0287C78.0747 37.0196 74.823 33.7576 70.8254 33.7576C66.8283 33.7576 63.576 37.0196 63.576 41.0287C63.576 45.0385 66.8283 48.2992 70.8254 48.2992C74.823 48.2986 78.0747 45.0378 78.0747 41.0287ZM65.3916 41.0163C65.3916 37.9995 67.83 35.5544 70.8377 35.5544C73.8455 35.5544 76.2839 37.9995 76.2839 41.0163C76.2839 44.0331 73.8455 46.4782 70.8377 46.4782C67.83 46.4782 65.3916 44.0324 65.3916 41.0163Z" fill="#000120"/>
<path d="M120.965 39.3489L119.032 42.7569C117.544 41.7135 115.526 41.0856 113.764 41.0856C111.751 41.0856 110.506 41.9215 110.506 43.4188C110.506 45.2379 112.718 45.6611 116.007 46.8451C119.542 48.099 121.575 49.5727 121.575 52.8204C121.575 57.2638 118.091 59.7593 113.084 59.7593C110.643 59.7593 107.699 59.1274 105.436 57.7466L106.846 53.9684C108.685 54.9424 110.884 55.52 112.844 55.52C115.487 55.52 116.743 54.5421 116.743 53.0965C116.743 51.4422 114.827 50.9451 111.736 49.9181C108.212 48.7381 105.77 47.1898 105.77 43.5954C105.77 39.5419 109.007 37.2139 113.664 37.2139C116.91 37.2139 119.518 38.2454 120.965 39.3489Z" fill="#000120"/>
<path d="M136.076 41.5029V59.3858H131.524V41.5029H124.918V37.5874H142.662V41.5029H136.076Z" fill="#000120"/>
<path d="M152.257 41.4912V46.4029H160.967V50.3185H152.257V55.4343H162.363V59.3858H147.707V37.5874H162.363V41.4912H152.257Z" fill="#000120"/>
<path d="M172.521 55.1535L171.082 59.3863H166.311L174.46 37.5879H179.041L187.42 59.3857H182.488L181.018 55.1529L172.521 55.1535ZM176.725 42.7875L173.757 51.5153H179.754L176.725 42.7875Z" fill="#000120"/>
<path d="M210.778 46.0131L204.831 58.7507H202.262L196.411 46.1269V59.3858H192.053V37.5874H196.402L203.706 53.3228L210.75 37.5874H215.136V59.3858H210.779L210.778 46.0131Z" fill="#000120"/>
<path d="M223.935 40.3373C223.935 42.2107 222.536 43.3783 220.93 43.3783C219.317 43.3783 217.915 42.2107 217.915 40.3373C217.915 38.4646 219.317 37.3048 220.93 37.3048C222.536 37.3048 223.935 38.4646 223.935 40.3373ZM218.42 40.3373C218.42 41.9046 219.546 42.889 220.93 42.889C222.308 42.889 223.429 41.9046 223.429 40.3373C223.429 38.7655 222.308 37.7961 220.93 37.7961C219.55 37.7961 218.42 38.7772 218.42 40.3373ZM220.971 38.7877C221.751 38.7877 222.013 39.2011 222.013 39.6479C222.013 40.0573 221.771 40.3321 221.476 40.472L222.175 41.7849H221.603L221.014 40.6212H220.407V41.7849H219.93V38.7877H220.971ZM220.411 40.1823H220.942C221.286 40.1823 221.488 39.9658 221.488 39.6936C221.488 39.4189 221.343 39.2423 220.941 39.2423H220.41V40.1823H220.411Z" fill="#000120"/>
</svg>
