<svg width="443" height="130" viewBox="0 0 443 130" fill="none" xmlns="http://www.w3.org/2000/svg">
<rect x="0.9021" y="0.676514" width="441.789" height="129.237" rx="21.9978" fill="white" fill-opacity="0.3"/>
<path fill-rule="evenodd" clip-rule="evenodd" d="M237.009 77.7186C237.009 78.4354 236.89 79.2716 236.771 79.8688C235.702 82.9747 232.849 85.0055 229.522 85.0055C226.55 85.0055 224.292 83.3331 224.292 79.7494C224.292 74.2544 230.235 72.8209 237.128 72.8209V77.7186H237.009ZM247.706 68.1621C247.706 59.2029 243.902 51.1993 230.948 51.1993C224.292 51.1993 218.944 53.1106 216.091 54.783L218.231 62.0698C221.559 60.1585 225.243 59.0834 229.046 58.964C235.702 58.964 236.771 62.6671 236.771 65.0562V65.6535C222.391 65.6535 213.358 70.6707 213.358 80.8245C213.358 87.0362 217.993 92.8896 226.075 92.8896C230.948 92.8896 235.107 90.9783 237.603 87.753H237.841C237.841 87.753 239.505 94.6815 248.538 92.0534C248.062 89.1865 247.824 86.0806 247.824 82.4969V68.1621H247.706ZM28.0702 38.8953L39.0044 83.8109C40.7872 91.0978 43.8773 93.8453 52.9099 92.0534L58.7336 68.1621C60.1598 62.1893 61.2294 58.0083 62.1802 51.916H62.2991C63.0122 58.0083 63.963 62.1893 65.1515 68.1621L68.717 84.7666C70.0244 90.5005 73.3522 94.0842 82.2659 92.0534L96.1714 39.0147H84.8807L80.1266 61.9504C78.8193 68.6399 77.6308 73.896 76.7988 79.9883C75.9669 73.896 74.8972 68.8788 73.5899 62.4282L68.717 39.0147H56.9508L51.6026 61.8309C50.1764 68.7594 48.7502 74.3738 47.7993 80.2272H47.6805C46.7297 74.7322 45.5412 67.6843 44.2338 60.9947L39.9552 38.8953H28.0702ZM116.851 77.7186C116.851 78.4354 116.851 79.2716 116.614 79.8688C115.544 82.9747 112.692 85.0055 109.364 85.0055C106.393 85.0055 104.134 83.3331 104.134 79.7494C104.134 74.2544 110.077 72.8209 116.97 72.8209V77.7186H116.851ZM127.667 68.1621C127.667 59.2029 123.864 51.1993 110.909 51.1993C104.253 51.1993 98.905 53.1106 96.0526 54.783L98.1919 62.0698C101.52 60.1585 105.204 59.0834 109.007 58.964C115.663 58.964 116.733 62.6671 116.733 65.0562V65.6535C102.352 65.6535 93.319 70.6707 93.319 80.8245C93.319 87.0362 97.9542 92.8896 106.036 92.8896C110.909 92.8896 115.069 90.9783 117.565 87.753H117.802C117.802 87.753 119.466 94.6815 128.499 92.0534C128.023 89.1865 127.786 86.0806 127.786 82.4969V68.1621H127.667ZM144.187 80.705V38.8953H133.49V91.9339H144.187V80.705ZM280.627 39.0147V78.077C280.627 83.4525 281.578 87.2751 283.836 89.5448C285.738 91.5756 288.828 92.8896 292.512 92.8896C295.721 92.8896 298.811 92.2923 300.237 91.695L300.119 83.2136C299.049 83.572 297.742 83.6915 296.078 83.6915C292.393 83.6915 291.205 81.4218 291.205 76.5241V61.7115H300.594V51.5577H291.205V38.8953L280.627 39.0147ZM252.935 52.1549V92.0534H263.988V71.6263C263.988 70.5512 264.107 69.5956 264.226 68.6399C265.058 64.3395 268.267 61.592 273.021 61.592C274.328 61.592 275.16 61.7115 276.23 61.8309V51.3187C275.398 51.1993 274.566 51.0798 273.853 51.0798C269.693 51.0798 265.058 53.7079 263.037 59.5612H262.8V52.0355L252.935 52.1549ZM150.486 52.1549V92.0534H161.183V68.6399C161.183 67.5648 161.301 66.3703 161.658 65.4146C162.49 63.0255 164.748 60.278 168.195 60.278C172.592 60.278 174.613 63.9811 174.613 69.2372V91.9339H185.428V68.2816C185.428 67.2065 185.547 65.8924 185.903 65.0562C186.735 62.1893 189.469 60.1585 192.44 60.1585C196.838 60.1585 198.977 63.7422 198.977 70.0734V91.9339H209.792V68.5205C209.792 56.2165 203.493 51.1993 196.481 51.1993C193.272 51.1993 190.895 52.0355 188.637 53.3495C186.735 54.5441 185.072 56.2165 183.645 58.3667H183.526C181.744 53.9468 177.346 51.0798 172.592 51.1993C167.838 50.9604 163.322 53.3495 161.064 57.5305H160.945V52.1549H150.486Z" fill="white"/>
<path fill-rule="evenodd" clip-rule="evenodd" d="M358.474 50.363C360.614 50.363 362.396 49.1684 362.634 47.8544L364.655 23.8436C364.655 21.4545 361.921 19.5432 358.474 19.5432C355.028 19.5432 352.294 21.4545 352.294 23.8436L354.433 47.8544C354.552 49.2879 356.335 50.363 358.474 50.363ZM345.52 57.8887C346.589 55.9774 346.47 53.9467 345.401 52.991L325.79 39.2535C323.77 38.059 320.68 39.4924 319.016 42.4789C317.233 45.4653 317.59 48.9295 319.61 50.0046L341.36 60.1584C342.667 60.6362 344.569 59.6806 345.52 57.8887ZM371.31 57.7693C372.38 59.6806 374.163 60.6362 375.589 60.039L397.22 49.8852C399.24 48.6906 399.597 45.3458 397.814 42.3594C396.031 39.373 393.06 37.9395 391.039 39.1341L371.429 52.991C370.359 53.9467 370.24 55.9774 371.31 57.7693ZM358.474 80.2271C360.614 80.2271 362.396 81.4217 362.634 82.7357L364.655 106.746C364.655 109.136 361.921 111.047 358.474 111.047C355.028 111.047 352.294 109.136 352.294 106.746L354.433 82.7357C354.552 81.3022 356.335 80.2271 358.474 80.2271ZM371.31 72.8208C372.38 70.9095 374.163 69.9538 375.589 70.4317L397.22 80.5855C399.24 81.78 399.597 85.1248 397.814 88.1112C396.031 91.0977 393.06 92.5311 391.039 91.3366L371.429 77.5991C370.359 76.7629 370.24 74.6127 371.31 72.8208ZM345.52 72.8208C346.589 74.6127 346.47 76.7629 345.401 77.7185L325.79 91.456C323.77 92.6506 320.68 91.2171 319.016 88.2307C317.233 85.2443 317.59 81.8995 319.61 80.7049L341.36 70.5511C342.667 69.9539 344.569 70.9095 345.52 72.8208ZM401.855 89.3058H402.092C402.33 89.3058 402.568 89.1863 402.568 89.0669C402.568 88.828 402.449 88.828 402.211 88.828H401.974V89.3058H401.855ZM401.855 90.3809H401.379V88.4696H402.092C402.449 88.4696 402.568 88.4696 402.805 88.5891C402.924 88.7085 403.043 88.828 403.043 88.9474C403.043 89.1863 402.924 89.3058 402.687 89.4253C402.924 89.5447 403.043 89.6642 403.043 89.9031C403.043 90.2615 403.162 90.2615 403.162 90.3809H402.687C402.568 90.2615 402.568 90.142 402.568 89.9031C402.568 89.6642 402.449 89.6642 402.211 89.6642H401.974L401.855 90.3809ZM402.092 87.8723C401.26 87.8723 400.666 88.5891 400.666 89.4253C400.666 90.2615 401.26 90.9782 402.092 90.9782C402.924 90.9782 403.519 90.2615 403.519 89.4253C403.637 88.5891 402.924 87.8723 402.092 87.8723ZM402.092 87.514C403.162 87.514 403.994 88.3502 403.994 89.4253C403.994 90.5004 403.162 91.3366 402.092 91.3366C401.023 91.3366 400.072 90.5004 400.072 89.4253C400.191 88.3502 401.023 87.514 402.092 87.514Z" fill="#F3B53B"/>
</svg>
